<svg viewBox="0 0 270 270" xmlns="http://www.w3.org/2000/svg" width="270" height="270"><g><path fill="#f98f4a" d="M84.5 6.5q50-.3 100 .5A86 86 0 0 1 256 67.5a133 133 0 0 1-9 104 84 84 0 0 1-64.5 40.5l-65 1L58 262.5q-.8-29.5-.5-59a75 75 0 0 1-40.5-39 143 143 0 0 1-1-105 89 89 0 0 1 68.5-53"/></g><g><path fill="#faf9f9" d="M209.5 33.5c1.6 56-1 112.9-2.5 169-6 6.5-19.7 6.3-22.5 6a1783 1783 0 0 0-20-44c-12.6 2.4-46.4 20.4-58 18.5-2.6-.5-5.3-18-3-19.5 2-1.4 7.6-2.4 11.5-3a4 4 0 0 1 2 1q9.7-2.1 19.5-3.5-12-11.8-20.5-24.5c-1.3-2.2-.2-7 3.5-9q15 14.4 31.5 27c.7.4-.5 3.5-1.8 4.6-.3.9 10.2-3 30.3-.6-1.5 2-5 5.5-5 5.5l-7 2.5s12.7 13.4 18 20q1.8-21.5.5-43-13.4-6.7-25.5-13.5a45 45 0 0 0-16.8-4.4l7.3 4.9c.4.3-1.3 12.3-8.5 12a76 76 0 0 0-21.5-22.1A152 152 0 0 1 83.5 138c-1.2 6.3-1 32.6-3 33.9-1 .8-17.5.7-19-1-2.9-3 1.8-25.1 3-103.5q10.5-5.8 20.5 0c.2 22.7-2.7 45.8-1.7 68.3 14-9 27.3-20.4 37.2-33.8q-5-1.7-8-5.5 1.6-6 6-10.5l-3-1.5-15 13.5a11 11 0 0 1-7 3c8.5-13.6 17.9-28.6 26.7-42-1.1-.4-9.4 2.5-21.7 3a23 23 0 0 1-6-17.5q42.9-6.6 85.5-15 5.3 4.8 8.3 11c.3-3.3-.2-7.8.7-9.9 3.5-5.8 22.1-4 22.5 2.9"/></g><g><path fill="#f98f4a" d="M176.5 48.5h10q.3 35.5-.5 71a7 7 0 0 1-1.5 3 750 750 0 0 1-45-26.5q8-13.2 18.4-24.5c.9-1.2.7-4.4-.4-6.5-1-2-2.6-4.2-5-3.5q-11.1 4.6-22.5 9l-.5-1q3-3.4 5-7.5-1.2-3-4-4.5 23-5.7 46-9"/></g><g><path fill="#f98f4a" d="M133.5 79.5q1.3-.2 2 1a97 97 0 0 1-7 9.5q-3.6-.6-6.5-3.5-1-1.2.5-2 6-1.7 11-5"/></g><g><path fill="#f98f4a" d="M129.5 106.5q12.1 6.3 24 13.5-7.5-.3-15-1l-12-8q2.1-2 3-4.5"/></g></svg>